<svg xmlns="http://www.w3.org/2000/svg" xmlns:xlink="http://www.w3.org/1999/xlink" xmlns:fi="http://pattern.flaticon.com/" x="0" y="0" width="2160" height="1080" viewBox="0 0 2160 1080"><rect x="0px" y="0px" width="100%" height="100%" opacity="1" fill="#adccd8"/><defs><path d="M165,0C74.019,0,0,74.019,0,165s74.019,165,165,165c90.982,0,165-74.019,165-165S255.982,0,165,0z" transform="matrix(0.03030303120613098 0 0 0.03030303120613098 345 82.5)" id="L1_87" fill="#700364"/><g transform="matrix(0.6666666865348816 0 0 0.6666666865348816 242.5 67.5)" id="L1_85"><path d="M58.501,60c-0.09,0-0.183-0.013-0.274-0.039l-37-10.512c-0.531-0.151-0.839-0.704-0.688-1.235   s0.702-0.839,1.235-0.688l37,10.512c0.531,0.151,0.839,0.704,0.688,1.235C59.337,59.713,58.936,60,58.501,60z" fill="#d1d4d1"/><path d="M34.25,30.085c-0.501,0-0.934-0.376-0.992-0.886c-0.063-0.549,0.332-1.044,0.88-1.107l18.249-2.085   c0.543-0.063,1.044,0.332,1.107,0.88c0.063,0.549-0.332,1.044-0.88,1.107l-18.249,2.085C34.326,30.083,34.288,30.085,34.25,30.085z   " fill="#d1d4d1"/><path d="M58.501,43c-0.062,0-0.124-0.005-0.186-0.017L33.44,38.293c-0.543-0.103-0.9-0.625-0.798-1.168   c0.103-0.543,0.626-0.898,1.168-0.798l24.875,4.689c0.543,0.103,0.9,0.625,0.798,1.168C59.392,42.666,58.973,43,58.501,43z" fill="#d1d4d1"/><path d="M27.499,19.273c-0.458,0-0.871-0.316-0.975-0.781c-0.121-0.539,0.218-1.074,0.757-1.194l28-6.273   c0.54-0.123,1.074,0.218,1.194,0.757c0.121,0.539-0.218,1.074-0.757,1.194l-28,6.273C27.645,19.265,27.571,19.273,27.499,19.273z" fill="#d1d4d1"/><path d="M36.5,5h-1.586L32.5,2.586V1c0-0.552-0.448-1-1-1c-0.552,0-1,0.448-1,1v1.586L28.086,5H26.5   c-0.552,0-1,0.448-1,1s0.448,1,1,1h1.586L30.5,9.414V11c0,0.552,0.448,1,1,1c0.552,0,1-0.448,1-1V9.414L34.914,7H36.5   c0.552,0,1-0.448,1-1S37.052,5,36.5,5z" fill="#f3d55b"/><circle cx="17" cy="32" r="17" fill="#546a79"/><path d="M17.5,15C8.172,15,0.606,22.516,0.509,31.821C6.052,32.58,12.126,33,18.5,33   c5.617,0,11.003-0.326,15.996-0.922c0-0.026,0.004-0.052,0.004-0.078C34.5,22.611,26.889,15,17.5,15z" fill="#38454f"/><circle cx="7" cy="25" r="1" fill="#546a79"/><circle cx="8" cy="29" r="1" fill="#546a79"/><circle cx="11" cy="26" r="1" fill="#546a79"/><circle cx="4" cy="28" r="1" fill="#546a79"/><circle cx="10" cy="21" r="1" fill="#546a79"/></g><g transform="matrix(0.3571428656578064 0 0 0.3571428656578064 165 165)" id="L1_86"><circle cx="27" cy="31" r="24" fill="#8697cb"/><circle cx="25" cy="29" r="18" fill="#92a8dd"/><circle cx="20" cy="27" r="11" fill="#a4b9ed"/><path d="M54.5,5h-1.586L50.5,2.586V1c0-0.552-0.447-1-1-1s-1,0.448-1,1v1.586L46.086,5H44.5   c-0.553,0-1,0.448-1,1s0.447,1,1,1h1.586L48.5,9.414V11c0,0.552,0.447,1,1,1s1-0.448,1-1V9.414L52.914,7H54.5c0.553,0,1-0.448,1-1   S55.053,5,54.5,5z" fill="#f3d55b"/><circle cx="6" cy="6" r="1" fill="#f3d55b"/><circle cx="53" cy="21" r="1" fill="#f3d55b"/><circle cx="41" cy="3" r="1" fill="#f3d55b"/><circle cx="32" cy="13" r="1" fill="#f3d55b"/><circle cx="35" cy="46" r="1" fill="#f3d55b"/><circle cx="3" cy="55" r="1" fill="#f3d55b"/><circle cx="1" cy="44" r="1" fill="#f3d55b"/><path d="M33,23.444c-2.514,0-3.993-1.59-4.451-3.473c-0.256-1.053-1.444-1.63-2.395-1.112   c-2.113,1.151-3.568,3.356-3.65,5.912c-0.124,3.834,3.039,7.164,6.875,7.229C33.3,32.066,36.5,28.906,36.5,25   c0-0.061-0.001-0.122-0.002-0.182c-0.028-1.073-1.086-1.853-2.118-1.559C33.962,23.378,33.503,23.444,33,23.444z" fill="#556080"/><path d="M8.576,16.249C8.934,18.376,10.771,20,13,20c2.485,0,4.5-2.015,4.5-4.5   c0-2.127-1.48-3.899-3.464-4.369C11.958,12.542,10.118,14.273,8.576,16.249z" fill="#556080"/><path d="M45.008,22.186   c-1.489,0.73-3.284,0.117-4.015-1.372" fill="none" stroke="#556080" stroke-linecap="round" stroke-width="2"/><path d="M27.5,11   c0,1.658-1.342,3-3,3" fill="none" stroke="#556080" stroke-linecap="round" stroke-width="2"/><path d="M23.5,36   c0,1.658-1.342,3-3,3" fill="none" stroke="#556080" stroke-linecap="round" stroke-width="2"/><path d="M40.188,31.54   c1.532,0.634,2.259,2.387,1.624,3.919" fill="none" stroke="#556080" stroke-linecap="round" stroke-width="2"/><path d="M10.647,31   c1.532,0.634,2.259,2.387,1.624,3.919" fill="none" stroke="#556080" stroke-linecap="round" stroke-width="2"/></g><path d="M165,0C74.019,0,0,74.019,0,165s74.019,165,165,165c90.982,0,165-74.019,165-165S255.982,0,165,0z" transform="matrix(0.03030303120613098 0 0 0.03030303120613098 82.5 257.5)" id="L1_88" fill="#0ae857"/><g transform="matrix(0.0390625 0 0 0.0390625 340 165)" id="L1_89"><path d="M496.64,232.96c-28.16-74.24-102.4-112.64-184.32-97.28C232.96,56.32,122.88,2.56,12.8,0C5.12,0,0,5.12,0,12.8    c2.56,110.08,56.32,220.16,133.12,299.52c-12.8,79.36,23.04,156.16,97.28,184.32c-12.8-33.28-15.36-71.68-5.12-110.08    c12.8,7.68,25.6,15.36,38.4,20.48c5.12,2.56,10.24,2.56,15.36-2.56l128-128c2.56-2.56,2.56-7.68,0-12.8    c-5.12-12.8-12.8-25.6-20.48-35.84C424.96,217.6,463.36,220.16,496.64,232.96z M215.04,215.04c-20.48,20.48-51.2,20.48-71.68,0    c-20.48-20.48-20.48-51.2,0-71.68c20.48-20.48,51.2-20.48,71.68,0C235.52,163.84,235.52,194.56,215.04,215.04z"/><path d="M504.32,368.64l-53.76-53.76c-10.24-10.24-25.6-10.24-35.84,0s-10.24,25.6,0,35.84l53.76,53.76    c10.24,10.24,25.6,10.24,35.84,0S514.56,378.88,504.32,368.64z"/><path d="M404.48,468.48l-53.76-53.76c-10.24-10.24-25.6-10.24-35.84,0s-10.24,25.6,0,35.84l53.76,53.76    c10.24,10.24,25.6,10.24,35.84,0S414.72,478.72,404.48,468.48z"/><path d="M473.6,440.32l-74.24-74.24c-10.24-10.24-25.6-10.24-35.84,0s-10.24,25.6,0,35.84l74.24,74.24    c10.24,10.24,25.6,10.24,35.84,0S483.84,450.56,473.6,440.32z"/></g><g transform="matrix(-0.1171875 0 0 0.1171875 205 232.5)" id="L1_90"><path d="M496.64,232.96c-28.16-74.24-102.4-112.64-184.32-97.28C232.96,56.32,122.88,2.56,12.8,0C5.12,0,0,5.12,0,12.8    c2.56,110.08,56.32,220.16,133.12,299.52c-12.8,79.36,23.04,156.16,97.28,184.32c-12.8-33.28-15.36-71.68-5.12-110.08    c12.8,7.68,25.6,15.36,38.4,20.48c5.12,2.56,10.24,2.56,15.36-2.56l128-128c2.56-2.56,2.56-7.68,0-12.8    c-5.12-12.8-12.8-25.6-20.48-35.84C424.96,217.6,463.36,220.16,496.64,232.96z M215.04,215.04c-20.48,20.48-51.2,20.48-71.68,0    c-20.48-20.48-20.48-51.2,0-71.68c20.48-20.48,51.2-20.48,71.68,0C235.52,163.84,235.52,194.56,215.04,215.04z"/><path d="M504.32,368.64l-53.76-53.76c-10.24-10.24-25.6-10.24-35.84,0s-10.24,25.6,0,35.84l53.76,53.76    c10.24,10.24,25.6,10.24,35.84,0S514.56,378.88,504.32,368.64z"/><path d="M404.48,468.48l-53.76-53.76c-10.24-10.24-25.6-10.24-35.84,0s-10.24,25.6,0,35.84l53.76,53.76    c10.24,10.24,25.6,10.24,35.84,0S414.72,478.72,404.48,468.48z"/><path d="M473.6,440.32l-74.24-74.24c-10.24-10.24-25.6-10.24-35.84,0s-10.24,25.6,0,35.84l74.24,74.24    c10.24,10.24,25.6,10.24,35.84,0S483.84,450.56,473.6,440.32z"/></g><g transform="matrix(0.17716535925865173 0 0 0.17716535925865173 305 305)" id="L1_91"><path d="M508,254c0,140.4-113.6,254-254,254S0,394.4,0,254S113.6,0,254,0S508,113.6,508,254z" fill="#90dfaa"/><path d="M508,254c0,36.4-7.6,70.8-21.2,102C447.6,445.6,358,508,254,508S60.4,445.6,21.2,356  C7.6,324.8,0,290.4,0,254C0,113.6,113.6,0,254,0S508,113.6,508,254z" fill="#324a5e"/><g><path d="M306,195.6v70c17.2,8.4,31.2,22.8,39.2,40.4c4.8-10.8,7.6-22.4,7.6-35.2   C353.2,238,334,209.2,306,195.6z" fill="#ff7058"/><path d="M202,195.6v70c-17.2,8.4-31.2,22.8-39.2,40.4c-4.8-10.8-7.6-22.4-7.6-35.2   C154.8,238,174,209.2,202,195.6z" fill="#ff7058"/></g><path d="M301.2,289.2C336,208,320,110.4,254,44.4l0,0l0,0c-66,66-82,163.6-47.2,244.8H301.2z" fill="#ffd05b"/><path d="M256.4,248.8c0,31.6-2.4,57.2-2.4,57.2s-2.4-25.6-2.4-57.2s2.4-57.2,2.4-57.2  S256.4,217.2,256.4,248.8z" fill="#ff7058"/><circle cx="254" cy="129" r="20" fill="#ffffff"/><path d="M454.8,344.8c-12.8,0-24.4,4.8-33.6,12.4c-5.6-2.4-11.6-3.6-18-3.6c-24.8,0-45.2,20.4-45.2,45.6  c0,6,1.2,12,3.2,17.2c-7.6,8-12.4,18.8-12.4,30.8c-6.4-3.6-14-5.6-21.6-5.6c-0.8,0-1.2,0-2,0c-3.6-11.6-11.6-21.6-22.4-27.2  c-18-22.8-25.6-73.2-27.6-87.6h-42.8c-2,14.4-9.6,64.8-27.6,87.6c-10.4,5.6-18.8,15.2-22.4,27.2c-0.8,0-1.2,0-2,0  c-8,0-15.2,2-21.6,5.6c0-12-4.8-22.8-12.4-30.8c2-5.2,3.2-11.2,3.2-17.2c0-25.2-20.4-45.6-45.6-45.6c-6.4,0-12.4,1.2-18,3.6  c-8.8-7.6-20.8-12.4-33.6-12.4c-12,0-23.2,4-32,11.2c39.2,89.6,128.8,152,232.8,152S446.8,445.6,486,356  C478,348.8,466.8,344.8,454.8,344.8z" fill="#e6e9ee"/><path d="M405.6,130.4 418.8,129.2 405.6,128 410,122.4 404.4,127.2 403.2,113.6 402,127.2   396.4,122.4 401.2,128 387.6,129.2 401.2,130.4 396.4,136 402,131.6 403.2,144.8 404.4,131.6 410,136z" fill="#ff7058"/><path d="M127.6,169.2 151.6,166.8 127.6,164.8 135.6,155.2 126,163.2 123.6,139.2 121.6,163.2   112,155.2 120,164.8 96,166.8 120,169.2 112,178.8 121.6,170.8 123.6,194.4 126,170.8 135.6,178.8z" fill="#4cdbc4"/><path d="M412,264.4 430.8,262.8 412,260.8 418.4,253.2 410.8,259.6 409.2,240.8 407.2,259.6   400,253.2 406,260.8 387.2,262.8 406,264.4 400,272 407.2,265.6 409.2,284.4 410.8,265.6 418.4,272z" fill="#84dbff"/></g><g transform="matrix(-0.11811023950576782 0 0 0.11811023950576782 117.50000166893005 57.5)" id="L1_92"><path d="M508,254c0,140.4-113.6,254-254,254S0,394.4,0,254S113.6,0,254,0S508,113.6,508,254z" fill="#90dfaa"/><path d="M508,254c0,36.4-7.6,70.8-21.2,102C447.6,445.6,358,508,254,508S60.4,445.6,21.2,356  C7.6,324.8,0,290.4,0,254C0,113.6,113.6,0,254,0S508,113.6,508,254z" fill="#324a5e"/><g><path d="M306,195.6v70c17.2,8.4,31.2,22.8,39.2,40.4c4.8-10.8,7.6-22.4,7.6-35.2   C353.2,238,334,209.2,306,195.6z" fill="#ff7058"/><path d="M202,195.6v70c-17.2,8.4-31.2,22.8-39.2,40.4c-4.8-10.8-7.6-22.4-7.6-35.2   C154.8,238,174,209.2,202,195.6z" fill="#ff7058"/></g><path d="M301.2,289.2C336,208,320,110.4,254,44.4l0,0l0,0c-66,66-82,163.6-47.2,244.8H301.2z" fill="#ffd05b"/><path d="M256.4,248.8c0,31.6-2.4,57.2-2.4,57.2s-2.4-25.6-2.4-57.2s2.4-57.2,2.4-57.2  S256.4,217.2,256.4,248.8z" fill="#ff7058"/><circle cx="254" cy="129" r="20" fill="#ffffff"/><path d="M454.8,344.8c-12.8,0-24.4,4.8-33.6,12.4c-5.6-2.4-11.6-3.6-18-3.6c-24.8,0-45.2,20.4-45.2,45.6  c0,6,1.2,12,3.2,17.2c-7.6,8-12.4,18.8-12.4,30.8c-6.4-3.6-14-5.6-21.6-5.6c-0.8,0-1.2,0-2,0c-3.6-11.6-11.6-21.6-22.4-27.2  c-18-22.8-25.6-73.2-27.6-87.6h-42.8c-2,14.4-9.6,64.8-27.6,87.6c-10.4,5.6-18.8,15.2-22.4,27.2c-0.8,0-1.2,0-2,0  c-8,0-15.2,2-21.6,5.6c0-12-4.8-22.8-12.4-30.8c2-5.2,3.2-11.2,3.2-17.2c0-25.2-20.4-45.6-45.6-45.6c-6.4,0-12.4,1.2-18,3.6  c-8.8-7.6-20.8-12.4-33.6-12.4c-12,0-23.2,4-32,11.2c39.2,89.6,128.8,152,232.8,152S446.8,445.6,486,356  C478,348.8,466.8,344.8,454.8,344.8z" fill="#e6e9ee"/><path d="M405.6,130.4 418.8,129.2 405.6,128 410,122.4 404.4,127.2 403.2,113.6 402,127.2   396.4,122.4 401.2,128 387.6,129.2 401.2,130.4 396.4,136 402,131.6 403.2,144.8 404.4,131.6 410,136z" fill="#ff7058"/><path d="M127.6,169.2 151.6,166.8 127.6,164.8 135.6,155.2 126,163.2 123.6,139.2 121.6,163.2   112,155.2 120,164.8 96,166.8 120,169.2 112,178.8 121.6,170.8 123.6,194.4 126,170.8 135.6,178.8z" fill="#4cdbc4"/><path d="M412,264.4 430.8,262.8 412,260.8 418.4,253.2 410.8,259.6 409.2,240.8 407.2,259.6   400,253.2 406,260.8 387.2,262.8 406,264.4 400,272 407.2,265.6 409.2,284.4 410.8,265.6 418.4,272z" fill="#84dbff"/></g></defs><g fi:class="KUsePattern"><pattern id="pattern_L1_87" width="350" height="350" patternUnits="userSpaceOnUse"><use xlink:href="#L1_87" x="-350" y="-350"/><use xlink:href="#L1_87" x="0" y="-350"/><use xlink:href="#L1_87" x="350" y="-350"/><use xlink:href="#L1_87" x="-350" y="0"/><use xlink:href="#L1_87" x="0" y="0"/><use xlink:href="#L1_87" x="350" y="0"/><use xlink:href="#L1_87" x="-350" y="350"/><use xlink:href="#L1_87" x="0" y="350"/><use xlink:href="#L1_87" x="350" y="350"/></pattern><rect x="0" y="0" width="100%" height="100%" fill="url(#pattern_L1_87)"/></g><g fi:class="KUsePattern"><pattern id="pattern_L1_85" width="350" height="350" patternUnits="userSpaceOnUse"><use xlink:href="#L1_85" x="-350" y="-350"/><use xlink:href="#L1_85" x="0" y="-350"/><use xlink:href="#L1_85" x="350" y="-350"/><use xlink:href="#L1_85" x="-350" y="0"/><use xlink:href="#L1_85" x="0" y="0"/><use xlink:href="#L1_85" x="350" y="0"/><use xlink:href="#L1_85" x="-350" y="350"/><use xlink:href="#L1_85" x="0" y="350"/><use xlink:href="#L1_85" x="350" y="350"/></pattern><rect x="0" y="0" width="100%" height="100%" fill="url(#pattern_L1_85)"/></g><g fi:class="KUsePattern"><pattern id="pattern_L1_86" width="350" height="350" patternUnits="userSpaceOnUse"><use xlink:href="#L1_86" x="-350" y="-350"/><use xlink:href="#L1_86" x="0" y="-350"/><use xlink:href="#L1_86" x="350" y="-350"/><use xlink:href="#L1_86" x="-350" y="0"/><use xlink:href="#L1_86" x="0" y="0"/><use xlink:href="#L1_86" x="350" y="0"/><use xlink:href="#L1_86" x="-350" y="350"/><use xlink:href="#L1_86" x="0" y="350"/><use xlink:href="#L1_86" x="350" y="350"/></pattern><rect x="0" y="0" width="100%" height="100%" fill="url(#pattern_L1_86)"/></g><g fi:class="KUsePattern"><pattern id="pattern_L1_88" width="350" height="350" patternUnits="userSpaceOnUse"><use xlink:href="#L1_88" x="-350" y="-350"/><use xlink:href="#L1_88" x="0" y="-350"/><use xlink:href="#L1_88" x="350" y="-350"/><use xlink:href="#L1_88" x="-350" y="0"/><use xlink:href="#L1_88" x="0" y="0"/><use xlink:href="#L1_88" x="350" y="0"/><use xlink:href="#L1_88" x="-350" y="350"/><use xlink:href="#L1_88" x="0" y="350"/><use xlink:href="#L1_88" x="350" y="350"/></pattern><rect x="0" y="0" width="100%" height="100%" fill="url(#pattern_L1_88)"/></g><g fi:class="KUsePattern"><pattern id="pattern_L1_89" width="350" height="350" patternUnits="userSpaceOnUse"><use xlink:href="#L1_89" x="-350" y="-350"/><use xlink:href="#L1_89" x="0" y="-350"/><use xlink:href="#L1_89" x="350" y="-350"/><use xlink:href="#L1_89" x="-350" y="0"/><use xlink:href="#L1_89" x="0" y="0"/><use xlink:href="#L1_89" x="350" y="0"/><use xlink:href="#L1_89" x="-350" y="350"/><use xlink:href="#L1_89" x="0" y="350"/><use xlink:href="#L1_89" x="350" y="350"/></pattern><rect x="0" y="0" width="100%" height="100%" fill="url(#pattern_L1_89)"/></g><g fi:class="KUsePattern"><pattern id="pattern_L1_90" width="350" height="350" patternUnits="userSpaceOnUse"><use xlink:href="#L1_90" x="-350" y="-350"/><use xlink:href="#L1_90" x="0" y="-350"/><use xlink:href="#L1_90" x="350" y="-350"/><use xlink:href="#L1_90" x="-350" y="0"/><use xlink:href="#L1_90" x="0" y="0"/><use xlink:href="#L1_90" x="350" y="0"/><use xlink:href="#L1_90" x="-350" y="350"/><use xlink:href="#L1_90" x="0" y="350"/><use xlink:href="#L1_90" x="350" y="350"/></pattern><rect x="0" y="0" width="100%" height="100%" fill="url(#pattern_L1_90)"/></g><g fi:class="KUsePattern"><pattern id="pattern_L1_91" width="350" height="350" patternUnits="userSpaceOnUse"><use xlink:href="#L1_91" x="-350" y="-350"/><use xlink:href="#L1_91" x="0" y="-350"/><use xlink:href="#L1_91" x="350" y="-350"/><use xlink:href="#L1_91" x="-350" y="0"/><use xlink:href="#L1_91" x="0" y="0"/><use xlink:href="#L1_91" x="350" y="0"/><use xlink:href="#L1_91" x="-350" y="350"/><use xlink:href="#L1_91" x="0" y="350"/><use xlink:href="#L1_91" x="350" y="350"/></pattern><rect x="0" y="0" width="100%" height="100%" fill="url(#pattern_L1_91)"/></g><g fi:class="KUsePattern"><pattern id="pattern_L1_92" width="350" height="350" patternUnits="userSpaceOnUse"><use xlink:href="#L1_92" x="-350" y="-350"/><use xlink:href="#L1_92" x="0" y="-350"/><use xlink:href="#L1_92" x="350" y="-350"/><use xlink:href="#L1_92" x="-350" y="0"/><use xlink:href="#L1_92" x="0" y="0"/><use xlink:href="#L1_92" x="350" y="0"/><use xlink:href="#L1_92" x="-350" y="350"/><use xlink:href="#L1_92" x="0" y="350"/><use xlink:href="#L1_92" x="350" y="350"/></pattern><rect x="0" y="0" width="100%" height="100%" fill="url(#pattern_L1_92)"/></g></svg>